<?xml version="1.0" standalone="no"?><!DOCTYPE svg PUBLIC "-//W3C//DTD SVG 1.1//EN" "http://www.w3.org/Graphics/SVG/1.1/DTD/svg11.dtd"><svg t="1623241750616" class="icon" viewBox="0 0 1024 1024" version="1.1" xmlns="http://www.w3.org/2000/svg" p-id="2420" width="48" height="48" xmlns:xlink="http://www.w3.org/1999/xlink"><defs><style type="text/css"></style></defs><path d="M858.8 903.6H182.2c-61 0-110.8-49.6-110.8-110.8V279c0-61 49.6-110.8 110.8-110.8h676.6c61 0 110.8 49.6 110.8 110.8v513.8c-0.2 61-49.8 110.8-110.8 110.8zM182.2 208.4c-39 0-70.8 31.8-70.8 70.8v513.8c0 39 31.8 70.8 70.8 70.8h676.6c39 0 70.8-31.8 70.8-70.8v-514c0-39-31.8-70.8-70.8-70.8H182.2z" fill="#563fe8" p-id="2421"></path><path d="M225.4 903.6c-11 0-20-9-20-20V188.4c0-11 9-20 20-20s20 9 20 20v695.2c0 11-8.8 20-20 20zM815.4 903.6c-11 0-20-9-20-20V188.4c0-11 9-20 20-20s20 9 20 20v695.2c0 11-9 20-20 20z" fill="#563fe8" p-id="2422"></path><path d="M225.4 399.2h-134c-11 0-20-9-20-20s9-20 20-20h134c11 0 20 9 20 20s-8.8 20-20 20zM225.4 556h-134c-11 0-20-9-20-20s9-20 20-20h134c11 0 20 9 20 20s-8.8 20-20 20zM225.4 732.6h-134c-11 0-20-9-20-20s9-20 20-20h134c11 0 20 9 20 20s-8.8 20-20 20z" fill="#563fe8" p-id="2423"></path><path d="M949.4 399.2h-134c-11 0-20-9-20-20s9-20 20-20h134c11 0 20 9 20 20s-9 20-20 20zM949.4 556h-134c-11 0-20-9-20-20s9-20 20-20h134c11 0 20 9 20 20s-9 20-20 20zM949.4 732.6h-134c-11 0-20-9-20-20s9-20 20-20h134c11 0 20 9 20 20s-9 20-20 20z" fill="#563fe8" p-id="2424"></path><path d="M432 679.2c-3.4 0-7-0.8-10-2.6-6.2-3.6-10-10.2-10-17.4V412.8c0-7.2 3.8-13.8 10-17.4 6.2-3.6 13.8-3.6 20 0l213.4 123.2c6.2 3.6 10 10.2 10 17.4s-3.8 13.8-10 17.4L442 676.4c-3.2 1.8-6.6 2.8-10 2.8z m20-231.8v177.2l153.4-88.6-153.4-88.6z" fill="#563fe8" p-id="2425"></path></svg>