<?xml version="1.0" standalone="no"?><!DOCTYPE svg PUBLIC "-//W3C//DTD SVG 1.1//EN" "http://www.w3.org/Graphics/SVG/1.1/DTD/svg11.dtd"><svg t="1623830412386" class="icon" viewBox="0 0 1024 1024" version="1.1" xmlns="http://www.w3.org/2000/svg" p-id="2479" xmlns:xlink="http://www.w3.org/1999/xlink" width="200" height="200"><defs><style type="text/css"></style></defs><path d="M509.661446 85.15859c109.740029 0 208.71288 44.322972 280.346969 116.785384h0.381909c71.995521 71.786648 116.487433 171.111715 116.487434 280.385877 0 109.636617-44.491913 208.554178-116.487434 280.723759l-2.303742 2.110228c-71.488697 70.754571-170.288512 114.31782-278.425136 114.31782-109.691907 0-209.02107-45.013071-280.446286-116.428048h-0.55085c-71.702689-72.169581-116.110644-171.087142-116.110644-280.723759 0-109.274161 44.407954-208.599229 116.110644-280.385877l2.303742-2.51159c72.208489-70.332731 170.649943-114.273793 278.693394-114.273794z m104.041083 230.701842l-104.041083 104.661558-104.816165-104.661558c-16.651447-17.465436-45.042763-17.465436-61.480218 0-17.669189 16.437455-17.669189 45.01819 0 62.532772l103.803542 103.937671-103.803542 104.299102c-17.669189 17.1081-17.669189 45.316141 0 62.821508 16.437455 17.152127 44.829795 17.152127 61.480218 0l104.816165-104.99432 104.041083 104.99432c17.643592 17.152127 45.335594 17.152127 62.687379 0 17.514582-17.505367 17.514582-45.356072 0-62.821508L572.223911 482.330875l104.165997-103.937671c17.514582-17.514582 17.514582-46.095317 0-62.532772-17.350761-17.465436-45.042763-17.465436-62.687379 0zM728.016254 263.777433c-56.079223-55.756699-133.078471-89.679044-218.353784-89.679044-84.278049 0-160.935319 32.820644-216.512839 87.866767l-1.96586 2.149135c-55.716768 55.334858-90.255491 133.198266-90.255491 218.21556 0 84.977363 34.5377 162.861248 90.255491 218.21556 55.74646 56.030077 132.746732 90.374262 218.478699 90.374262 84.367127 0 160.860576-33.60494 216.204649-88.239461l2.025245-2.134801c56.227686-55.354312 90.379382-133.238197 90.379382-218.21556 0-85.017294-34.150671-162.880701-90.379382-218.21556l0.12389-0.336858z" fill="#d81e06" p-id="2480"></path></svg>